<svg width="32" height="33" viewBox="0 0 32 33" fill="none" xmlns="http://www.w3.org/2000/svg">
<path d="M7 15.5H27C27.2652 15.5 27.5196 15.6054 27.7071 15.7929C27.8946 15.9804 28 16.2348 28 16.5C28 16.7652 27.8946 17.0196 27.7071 17.2071C27.5196 17.3946 27.2652 17.5 27 17.5H7C6.73478 17.5 6.48043 17.3946 6.29289 17.2071C6.10536 17.0196 6 16.7652 6 16.5C6 16.2348 6.10536 15.9804 6.29289 15.7929C6.48043 15.6054 6.73478 15.5 7 15.5Z" fill="white"/>
<path d="M7.41383 16.5003L15.7078 24.7923C15.8956 24.9801 16.0011 25.2347 16.0011 25.5003C16.0011 25.7658 15.8956 26.0205 15.7078 26.2083C15.5201 26.3961 15.2654 26.5015 14.9998 26.5015C14.7343 26.5015 14.4796 26.3961 14.2918 26.2083L5.29183 17.2083C5.19871 17.1154 5.12482 17.005 5.07441 16.8836C5.024 16.7621 4.99805 16.6318 4.99805 16.5003C4.99805 16.3688 5.024 16.2385 5.07441 16.117C5.12482 15.9955 5.19871 15.8852 5.29183 15.7923L14.2918 6.79229C14.4796 6.60451 14.7343 6.49902 14.9998 6.49902C15.2654 6.49902 15.5201 6.60451 15.7078 6.79229C15.8956 6.98006 16.0011 7.23474 16.0011 7.50029C16.0011 7.76584 15.8956 8.02051 15.7078 8.20829L7.41383 16.5003Z" fill="white"/>
</svg>
