<svg width="32" height="33" viewBox="0 0 32 33" fill="none" xmlns="http://www.w3.org/2000/svg">
<g clip-path="url(#clip0_359_221)">
<path fill-rule="evenodd" clip-rule="evenodd" d="M20.9425 15.5576C21.1924 15.8076 21.3329 16.1467 21.3329 16.5002C21.3329 16.8538 21.1924 17.1929 20.9425 17.4429L13.3998 24.9856C13.2768 25.1129 13.1297 25.2145 12.967 25.2844C12.8043 25.3543 12.6294 25.391 12.4523 25.3926C12.2753 25.3941 12.0997 25.3604 11.9359 25.2933C11.772 25.2263 11.6231 25.1273 11.4979 25.0021C11.3728 24.8769 11.2738 24.728 11.2067 24.5642C11.1397 24.4003 11.1059 24.2247 11.1075 24.0477C11.109 23.8707 11.1458 23.6957 11.2157 23.533C11.2855 23.3704 11.3871 23.2232 11.5145 23.1002L18.1145 16.5002L11.5145 9.90024C11.2716 9.64877 11.1372 9.31197 11.1402 8.96237C11.1433 8.61278 11.2835 8.27836 11.5307 8.03115C11.7779 7.78394 12.1123 7.64371 12.4619 7.64068C12.8115 7.63764 13.1483 7.77203 13.3998 8.01491L20.9425 15.5576Z" fill="white"/>
</g>
<defs>
<clipPath id="clip0_359_221">
<rect width="32" height="32" fill="white" transform="translate(0 0.5)"/>
</clipPath>
</defs>
</svg>
