<svg width="32" height="33" viewBox="0 0 32 33" fill="none" xmlns="http://www.w3.org/2000/svg">
<path d="M24.4003 8.11363C24.2769 7.99003 24.1304 7.89196 23.9691 7.82505C23.8078 7.75815 23.6349 7.72371 23.4603 7.72371C23.2857 7.72371 23.1128 7.75815 22.9515 7.82505C22.7902 7.89196 22.6436 7.99003 22.5203 8.11363L16.0003 14.6203L9.4803 8.1003C9.35686 7.97686 9.21031 7.87894 9.04902 7.81213C8.88774 7.74532 8.71487 7.71094 8.5403 7.71094C8.36572 7.71094 8.19286 7.74532 8.03157 7.81213C7.87029 7.87894 7.72374 7.97686 7.6003 8.1003C7.47686 8.22374 7.37894 8.37029 7.31213 8.53157C7.24532 8.69286 7.21094 8.86572 7.21094 9.0403C7.21094 9.21487 7.24532 9.38774 7.31213 9.54902C7.37894 9.71031 7.47686 9.85686 7.6003 9.9803L14.1203 16.5003L7.6003 23.0203C7.47686 23.1437 7.37894 23.2903 7.31213 23.4516C7.24532 23.6129 7.21094 23.7857 7.21094 23.9603C7.21094 24.1349 7.24532 24.3077 7.31213 24.469C7.37894 24.6303 7.47686 24.7769 7.6003 24.9003C7.72374 25.0237 7.87029 25.1217 8.03157 25.1885C8.19286 25.2553 8.36572 25.2897 8.5403 25.2897C8.71487 25.2897 8.88774 25.2553 9.04902 25.1885C9.21031 25.1217 9.35686 25.0237 9.4803 24.9003L16.0003 18.3803L22.5203 24.9003C22.6437 25.0237 22.7903 25.1217 22.9516 25.1885C23.1129 25.2553 23.2857 25.2897 23.4603 25.2897C23.6349 25.2897 23.8077 25.2553 23.969 25.1885C24.1303 25.1217 24.2769 25.0237 24.4003 24.9003C24.5237 24.7769 24.6217 24.6303 24.6885 24.469C24.7553 24.3077 24.7897 24.1349 24.7897 23.9603C24.7897 23.7857 24.7553 23.6129 24.6885 23.4516C24.6217 23.2903 24.5237 23.1437 24.4003 23.0203L17.8803 16.5003L24.4003 9.9803C24.907 9.47363 24.907 8.6203 24.4003 8.11363Z" fill="white"/>
</svg>
