<svg width="24" height="25" viewBox="0 0 24 25" fill="none" xmlns="http://www.w3.org/2000/svg">
<path d="M20.2501 21.5001C20.1516 21.5003 20.054 21.4809 19.963 21.4432C19.872 21.4054 19.7894 21.3501 19.7199 21.2803L3.21994 4.78025C3.08522 4.63845 3.01123 4.44964 3.01373 4.25407C3.01624 4.0585 3.09504 3.87164 3.23334 3.73334C3.37164 3.59504 3.5585 3.51624 3.75407 3.51373C3.94964 3.51123 4.13845 3.58522 4.28025 3.71994L20.7803 20.2199C20.8851 20.3248 20.9564 20.4584 20.9854 20.6039C21.0143 20.7493 20.9994 20.9001 20.9427 21.0371C20.8859 21.1741 20.7899 21.2912 20.6666 21.3736C20.5433 21.456 20.3984 21.5 20.2501 21.5001ZM11.6251 15.3056L9.19744 12.8779C9.18353 12.8641 9.16565 12.855 9.1463 12.8519C9.12696 12.8488 9.10713 12.8518 9.0896 12.8606C9.07206 12.8693 9.05771 12.8833 9.04855 12.9006C9.03939 12.918 9.03589 12.9377 9.03853 12.9571C9.13654 13.587 9.43227 14.1693 9.88299 14.62C10.3337 15.0707 10.916 15.3665 11.5459 15.4645C11.5653 15.4671 11.585 15.4636 11.6024 15.4544C11.6197 15.4453 11.6337 15.4309 11.6424 15.4134C11.6512 15.3959 11.6542 15.376 11.6511 15.3567C11.648 15.3374 11.6389 15.3195 11.6251 15.3056ZM12.3751 9.69462L14.8065 12.1251C14.8204 12.1391 14.8383 12.1483 14.8577 12.1516C14.8772 12.1548 14.8971 12.1518 14.9148 12.143C14.9324 12.1343 14.9469 12.1201 14.956 12.1027C14.9652 12.0853 14.9686 12.0654 14.9659 12.0459C14.8681 11.4152 14.5722 10.832 14.1209 10.3807C13.6696 9.92942 13.0864 9.63348 12.4557 9.53572C12.4362 9.53271 12.4162 9.53594 12.3986 9.54496C12.381 9.55398 12.3668 9.56833 12.3578 9.58595C12.3489 9.60358 12.3457 9.62357 12.3488 9.64309C12.3519 9.66261 12.3611 9.68064 12.3751 9.69462Z" fill="white"/>
<path d="M23.0156 13.3137C23.1708 13.0702 23.2529 12.7872 23.252 12.4984C23.2512 12.2096 23.1675 11.9271 23.0109 11.6844C21.7706 9.76625 20.1614 8.13688 18.3577 6.97203C16.3594 5.68203 14.1562 5 11.985 5C10.8404 5.00154 9.70349 5.18817 8.61843 5.55266C8.58807 5.56276 8.56079 5.58046 8.5392 5.60409C8.51761 5.62772 8.50242 5.65647 8.49509 5.68763C8.48776 5.71878 8.48853 5.75129 8.49732 5.78207C8.50611 5.81284 8.52263 5.84085 8.54531 5.86344L10.7597 8.07781C10.7827 8.10086 10.8113 8.11752 10.8427 8.12615C10.8741 8.13478 10.9072 8.13508 10.9387 8.12703C11.6893 7.94412 12.4744 7.95752 13.2183 8.16595C13.9622 8.37438 14.6399 8.77082 15.1862 9.3171C15.7325 9.86338 16.1289 10.5411 16.3373 11.285C16.5458 12.0289 16.5592 12.8139 16.3762 13.5645C16.3683 13.596 16.3686 13.629 16.3773 13.6603C16.3859 13.6916 16.4025 13.7202 16.4255 13.7431L19.6106 16.9306C19.6438 16.9638 19.6881 16.9834 19.735 16.9855C19.7819 16.9876 19.8278 16.972 19.8637 16.9419C21.0898 15.8968 22.1522 14.6739 23.0156 13.3137ZM12 17C11.3188 17 10.6465 16.8454 10.0337 16.5478C9.42094 16.2502 8.88375 15.8173 8.46263 15.2819C8.04151 14.7464 7.74745 14.1223 7.60262 13.4567C7.45779 12.7911 7.46598 12.1012 7.62656 11.4392C7.63452 11.4077 7.63417 11.3747 7.62555 11.3434C7.61692 11.3121 7.60031 11.2836 7.57734 11.2606L4.44422 8.12609C4.41099 8.09283 4.36649 8.07327 4.31952 8.07127C4.27255 8.06927 4.22655 8.08499 4.19062 8.11531C3.04734 9.09078 1.9875 10.2777 1.01859 11.6647C0.84899 11.9081 0.755584 12.1965 0.750243 12.4931C0.744901 12.7897 0.827865 13.0813 0.988591 13.3306C2.22656 15.268 3.81937 16.8997 5.59547 18.0486C7.59656 19.3438 9.74625 20 11.985 20C13.1412 19.9969 14.2899 19.8143 15.39 19.4586C15.4206 19.4488 15.4482 19.4313 15.4702 19.4078C15.4921 19.3842 15.5076 19.3554 15.5152 19.3242C15.5227 19.2929 15.5222 19.2602 15.5134 19.2293C15.5047 19.1983 15.4882 19.1701 15.4655 19.1473L13.2403 16.9227C13.2174 16.8997 13.1888 16.8831 13.1575 16.8744C13.1262 16.8658 13.0932 16.8655 13.0617 16.8734C12.7141 16.9577 12.3577 17.0002 12 17Z" fill="white"/>
</svg>
