<svg width="24" height="25" viewBox="0 0 24 25" fill="none" xmlns="http://www.w3.org/2000/svg">
<path d="M12 15.5C13.6569 15.5 15 14.1569 15 12.5C15 10.8431 13.6569 9.5 12 9.5C10.3431 9.5 9 10.8431 9 12.5C9 14.1569 10.3431 15.5 12 15.5Z" fill="white"/>
<path d="M23.0081 11.6844C21.7678 9.76625 20.1586 8.13688 18.3548 6.97203C16.3593 5.68203 14.1562 5 11.984 5C9.9909 5 8.03105 5.56953 6.15886 6.69266C4.24965 7.83781 2.51996 9.51078 1.01761 11.6647C0.848014 11.9081 0.754608 12.1965 0.749266 12.4931C0.743924 12.7897 0.826888 13.0813 0.987615 13.3306C2.22558 15.268 3.81886 16.8997 5.59449 18.0486C7.59371 19.3438 9.74527 20 11.984 20C14.1736 20 16.3814 19.3236 18.3684 18.0444C20.1712 16.8833 21.7771 15.2478 23.0128 13.3137C23.168 13.0702 23.25 12.7872 23.2492 12.4984C23.2483 12.2096 23.1647 11.9271 23.0081 11.6844ZM12 17C11.1099 17 10.2399 16.7361 9.49989 16.2416C8.75987 15.7471 8.18309 15.0443 7.8425 14.2221C7.50191 13.3998 7.41279 12.495 7.58642 11.6221C7.76006 10.7492 8.18864 9.94736 8.81798 9.31802C9.44731 8.68868 10.2491 8.2601 11.1221 8.08647C11.995 7.91283 12.8998 8.00195 13.722 8.34254C14.5443 8.68314 15.2471 9.25991 15.7416 9.99993C16.236 10.74 16.5 11.61 16.5 12.5C16.4986 13.6931 16.024 14.8369 15.1804 15.6805C14.3368 16.5241 13.193 16.9986 12 17Z" fill="white"/>
</svg>
