<svg width="32" height="33" viewBox="0 0 32 33" fill="none" xmlns="http://www.w3.org/2000/svg">
<path d="M8.17798 28.5004C6.60732 28.5004 5.33398 27.1937 5.33398 25.5804V13.8444C5.33398 12.9577 5.72732 12.1177 6.40065 11.5644L14.2233 5.14037C14.7231 4.72648 15.3517 4.5 16.0007 4.5C16.6496 4.5 17.2782 4.72648 17.778 5.14037L25.5993 11.5644C26.274 12.1177 26.6673 12.9577 26.6673 13.8444V25.5804C26.6673 27.1937 25.394 28.5004 23.8233 28.5004H8.17798Z" stroke="white" stroke-width="2" stroke-linecap="round" stroke-linejoin="round"/>
<path d="M12.668 28.5V21.1667C12.668 20.4594 12.9489 19.7811 13.449 19.281C13.9491 18.781 14.6274 18.5 15.3346 18.5H16.668C17.3752 18.5 18.0535 18.781 18.5536 19.281C19.0537 19.7811 19.3346 20.4594 19.3346 21.1667V28.5" stroke="white" stroke-width="2" stroke-linecap="round" stroke-linejoin="round"/>
</svg>
