<svg width="33" height="31" viewBox="0 0 33 31" fill="none" xmlns="http://www.w3.org/2000/svg">
<g filter="url(#filter0_d_402_83)">
<rect x="5.5" y="2" width="19" height="19" stroke="black" shape-rendering="crispEdges"/>
<path d="M17.2852 11.5H27.2852" stroke="white" stroke-width="2.54395" stroke-linecap="round" stroke-linejoin="round"/>
<path d="M24.4297 8.64258L27.2868 11.4997L24.4297 14.3569" stroke="white" stroke-width="2.54395" stroke-linecap="round" stroke-linejoin="round"/>
<path opacity="0.9" d="M21.7051 17.9282C20.4223 19.2652 18.7688 20.188 16.9573 20.5776C15.1458 20.9673 13.2592 20.8061 11.54 20.1148C9.82089 19.4235 8.34789 18.2337 7.3105 16.6984C6.2731 15.1631 5.71875 13.3525 5.71875 11.4996C5.71875 9.64666 6.2731 7.8361 7.3105 6.3008C8.34789 4.7655 9.82089 3.57567 11.54 2.88436C13.2592 2.19304 15.1458 2.03186 16.9573 2.42154C18.7688 2.81122 20.4223 3.73394 21.7051 5.07101" stroke="white" stroke-opacity="0.8" stroke-width="2.54395" stroke-linecap="round" stroke-linejoin="round"/>
</g>
<defs>
<filter id="filter0_d_402_83" x="0.447266" y="0.941406" width="32.1113" height="29.1162" filterUnits="userSpaceOnUse" color-interpolation-filters="sRGB">
<feFlood flood-opacity="0" result="BackgroundImageFix"/>
<feColorMatrix in="SourceAlpha" type="matrix" values="0 0 0 0 0 0 0 0 0 0 0 0 0 0 0 0 0 0 127 0" result="hardAlpha"/>
<feOffset dy="4"/>
<feGaussianBlur stdDeviation="2"/>
<feComposite in2="hardAlpha" operator="out"/>
<feColorMatrix type="matrix" values="0 0 0 0 0 0 0 0 0 0 0 0 0 0 0 0 0 0 0.25 0"/>
<feBlend mode="normal" in2="BackgroundImageFix" result="effect1_dropShadow_402_83"/>
<feBlend mode="normal" in="SourceGraphic" in2="effect1_dropShadow_402_83" result="shape"/>
</filter>
</defs>
</svg>
