<svg width="24" height="25" viewBox="0 0 24 25" fill="none" xmlns="http://www.w3.org/2000/svg">
<path fill-rule="evenodd" clip-rule="evenodd" d="M12 2.5C13.3132 2.49999 14.6136 2.75865 15.8268 3.26119C17.0401 3.76373 18.1425 4.50033 19.0711 5.42891C19.9997 6.3575 20.7363 7.45989 21.2388 8.67315C21.7414 9.8864 22 11.1868 22 12.5C22 18.0228 17.5228 22.5 12 22.5C6.47717 22.5 2 18.0228 2 12.5C2 6.97717 6.47717 2.5 12 2.5ZM13 13.5H11C8.5243 13.5 6.39884 14.9994 5.48211 17.1398C6.93261 19.1737 9.31142 20.5 12 20.5C14.6885 20.5 17.0674 19.1737 18.5179 17.1396C17.6012 14.9994 15.4757 13.5 13 13.5ZM12 5.5C10.3431 5.5 8.99998 6.84316 8.99998 8.5C8.99998 10.1568 10.3431 11.5 12 11.5C13.6568 11.5 15 10.1568 15 8.5C15 6.84316 13.6569 5.5 12 5.5Z" fill="white"/>
</svg>
