<svg width="24" height="25" viewBox="0 0 24 25" fill="none" xmlns="http://www.w3.org/2000/svg">
<path d="M8 7.5C6.67392 7.5 5.40215 8.02678 4.46447 8.96447C3.52678 9.90215 3 11.1739 3 12.5C3 13.8261 3.52678 15.0979 4.46447 16.0355C5.40215 16.9732 6.67392 17.5 8 17.5H16C17.3261 17.5 18.5979 16.9732 19.5355 16.0355C20.4732 15.0979 21 13.8261 21 12.5C21 11.1739 20.4732 9.90215 19.5355 8.96447C18.5979 8.02678 17.3261 7.5 16 7.5H8ZM8 5.5H16C16.9193 5.5 17.8295 5.68106 18.6788 6.03284C19.5281 6.38463 20.2997 6.90024 20.9497 7.55025C21.5998 8.20026 22.1154 8.97194 22.4672 9.82122C22.8189 10.6705 23 11.5807 23 12.5C23 13.4193 22.8189 14.3295 22.4672 15.1788C22.1154 16.0281 21.5998 16.7997 20.9497 17.4497C20.2997 18.0998 19.5281 18.6154 18.6788 18.9672C17.8295 19.3189 16.9193 19.5 16 19.5H8C7.08075 19.5 6.1705 19.3189 5.32122 18.9672C4.47194 18.6154 3.70026 18.0998 3.05025 17.4497C2.40024 16.7997 1.88463 16.0281 1.53284 15.1788C1.18106 14.3295 1 13.4193 1 12.5C1 11.5807 1.18106 10.6705 1.53284 9.82122C1.88463 8.97194 2.40024 8.20026 3.05025 7.55025C3.70026 6.90024 4.47194 6.38463 5.32122 6.03284C6.1705 5.68106 7.08075 5.5 8 5.5ZM8 15.5C7.20435 15.5 6.44129 15.1839 5.87868 14.6213C5.31607 14.0587 5 13.2956 5 12.5C5 11.7044 5.31607 10.9413 5.87868 10.3787C6.44129 9.81607 7.20435 9.5 8 9.5C8.79565 9.5 9.55871 9.81607 10.1213 10.3787C10.6839 10.9413 11 11.7044 11 12.5C11 13.2956 10.6839 14.0587 10.1213 14.6213C9.55871 15.1839 8.79565 15.5 8 15.5Z" fill="white"/>
</svg>
