<svg width="24" height="25" viewBox="0 0 24 25" fill="none" xmlns="http://www.w3.org/2000/svg">
<path d="M8 5.5H16C16.9193 5.5 17.8295 5.68106 18.6788 6.03284C19.5281 6.38463 20.2997 6.90024 20.9497 7.55025C21.5998 8.20026 22.1154 8.97194 22.4672 9.82122C22.8189 10.6705 23 11.5807 23 12.5C23 13.4193 22.8189 14.3295 22.4672 15.1788C22.1154 16.0281 21.5998 16.7997 20.9497 17.4497C20.2997 18.0998 19.5281 18.6154 18.6788 18.9672C17.8295 19.3189 16.9193 19.5 16 19.5H8C7.08075 19.5 6.1705 19.3189 5.32122 18.9672C4.47194 18.6154 3.70026 18.0998 3.05025 17.4497C2.40024 16.7997 1.88463 16.0281 1.53284 15.1788C1.18106 14.3295 1 13.4193 1 12.5C1 11.5807 1.18106 10.6705 1.53284 9.82122C1.88463 8.97194 2.40024 8.20026 3.05025 7.55025C3.70026 6.90024 4.47194 6.38463 5.32122 6.03284C6.1705 5.68106 7.08075 5.5 8 5.5ZM16 15.5C16.7956 15.5 17.5587 15.1839 18.1213 14.6213C18.6839 14.0587 19 13.2956 19 12.5C19 11.7044 18.6839 10.9413 18.1213 10.3787C17.5587 9.81607 16.7956 9.5 16 9.5C15.2044 9.5 14.4413 9.81607 13.8787 10.3787C13.3161 10.9413 13 11.7044 13 12.5C13 13.2956 13.3161 14.0587 13.8787 14.6213C14.4413 15.1839 15.2044 15.5 16 15.5Z" fill="white"/>
</svg>
